<svg xmlns="http://www.w3.org/2000/svg" width="300" height="300" viewBox="0 0 300 300">
  <metadata><?xpacket begin="﻿" id="W5M0MpCehiHzreSzNTczkc9d"?>
<x:xmpmeta xmlns:x="adobe:ns:meta/" x:xmptk="Adobe XMP Core 5.6-c138 79.159824, 2016/09/14-01:09:01        ">
   <rdf:RDF xmlns:rdf="http://www.w3.org/1999/02/22-rdf-syntax-ns#">
      <rdf:Description rdf:about=""/>
   </rdf:RDF>
</x:xmpmeta>
                                                                                                    
                                                                                                    
                                                                                                    
                                                                                                    
                                                                                                    
                                                                                                    
                                                                                                    
                                                                                                    
                                                                                                    
                                                                                                    
                                                                                                    
                                                                                                    
                                                                                                    
                                                                                                    
                                                                                                    
                                                                                                    
                                                                                                    
                                                                                                    
                                                                                                    
                                                                                                    
                           
<?xpacket end="w"?></metadata>
<defs>
    <style>
      .cls-1 {
        fill-rule: evenodd;
      }
    </style>
  </defs>
  <path class="cls-1" d="M221.755,89.414H78.242a2.6,2.6,0,0,0-2.594,2.594v95.963a2.6,2.6,0,0,0,2.594,2.594H221.755a2.6,2.6,0,0,0,2.594-2.594V92.007A2.6,2.6,0,0,0,221.755,89.414ZM150,0A150,150,0,1,0,300,150,150,150,0,0,0,150,0Zm92.509,187.97a20.75,20.75,0,0,1-20.75,20.749H174.611v11.588h23.8a7.781,7.781,0,0,1,0,15.562H101.586a7.781,7.781,0,1,1,0-15.562h23.8V208.719H78.242A20.75,20.75,0,0,1,57.492,187.97V92.007A20.75,20.75,0,0,1,78.242,71.258H221.755a20.75,20.75,0,0,1,20.75,20.749V187.97Z"/>
</svg>
