<svg xmlns="http://www.w3.org/2000/svg" width="300" height="300" viewBox="0 0 300 300">
  <metadata><?xpacket begin="﻿" id="W5M0MpCehiHzreSzNTczkc9d"?>
<x:xmpmeta xmlns:x="adobe:ns:meta/" x:xmptk="Adobe XMP Core 5.6-c138 79.159824, 2016/09/14-01:09:01        ">
   <rdf:RDF xmlns:rdf="http://www.w3.org/1999/02/22-rdf-syntax-ns#">
      <rdf:Description rdf:about=""/>
   </rdf:RDF>
</x:xmpmeta>
                                                                                                    
                                                                                                    
                                                                                                    
                                                                                                    
                                                                                                    
                                                                                                    
                                                                                                    
                                                                                                    
                                                                                                    
                                                                                                    
                                                                                                    
                                                                                                    
                                                                                                    
                                                                                                    
                                                                                                    
                                                                                                    
                                                                                                    
                                                                                                    
                                                                                                    
                                                                                                    
                           
<?xpacket end="w"?></metadata>
<defs>
    <style>
      .cls-1 {
        fill-rule: evenodd;
      }
    </style>
  </defs>
  <path class="cls-1" d="M150,0A150,150,0,1,0,300,150,150,150,0,0,0,150,0Zm0,52.687,88.765,55.351H61.236Zm89.871,143.739h-0.009A16.07,16.07,0,0,1,223.79,212.5H76.211a16.071,16.071,0,0,1-16.072-16.072V111.559a15.987,15.987,0,0,1,.252-2.749L145.2,161.694c0.1,0.065.215,0.109,0.322,0.169s0.226,0.122.34,0.179a8.9,8.9,0,0,0,1.847.721c0.065,0.018.13,0.026,0.195,0.041a9.148,9.148,0,0,0,2.093.265h0.015a8.987,8.987,0,0,0,2.094-.265c0.065-.016.13-0.023,0.195-0.041a8.99,8.99,0,0,0,1.847-.721c0.114-.057.228-0.117,0.34-0.179s0.218-.1.322-0.169l84.809-52.884a15.968,15.968,0,0,1,.252,2.749v84.866h0Z"/>
</svg>
