<svg xmlns="http://www.w3.org/2000/svg" width="300" height="300" viewBox="0 0 300 300">
  <metadata><?xpacket begin="﻿" id="W5M0MpCehiHzreSzNTczkc9d"?>
<x:xmpmeta xmlns:x="adobe:ns:meta/" x:xmptk="Adobe XMP Core 5.6-c138 79.159824, 2016/09/14-01:09:01        ">
   <rdf:RDF xmlns:rdf="http://www.w3.org/1999/02/22-rdf-syntax-ns#">
      <rdf:Description rdf:about=""/>
   </rdf:RDF>
</x:xmpmeta>
                                                                                                    
                                                                                                    
                                                                                                    
                                                                                                    
                                                                                                    
                                                                                                    
                                                                                                    
                                                                                                    
                                                                                                    
                                                                                                    
                                                                                                    
                                                                                                    
                                                                                                    
                                                                                                    
                                                                                                    
                                                                                                    
                                                                                                    
                                                                                                    
                                                                                                    
                                                                                                    
                           
<?xpacket end="w"?></metadata>
<defs>
    <style>
      .cls-1 {
        fill-rule: evenodd;
      }
    </style>
  </defs>
  <path class="cls-1" d="M150,0A150,150,0,1,0,300,150,150,150,0,0,0,150,0Zm76.95,224.021h0a15.566,15.566,0,0,1-15.563,15.562H88.622A15.564,15.564,0,0,1,73.06,224.021V75.323A15.564,15.564,0,0,1,88.622,59.761H211.384a15.564,15.564,0,0,1,15.562,15.562v148.7ZM183.261,161.5h-66.52a7.091,7.091,0,0,0-7.091,7.091v41.272a7.089,7.089,0,0,0,7.091,7.091h66.52a7.089,7.089,0,0,0,7.091-7.091V168.591A7.087,7.087,0,0,0,183.261,161.5ZM84.775,112.932h13.4v15.562h-13.4V112.932Zm0-29.286h13.4V99.208h-13.4V83.646Zm0,117.147h13.4v15.562h-13.4V200.793Zm0-29.287h13.4v15.562h-13.4V171.506Zm0-29.287h13.4v15.562h-13.4V142.219ZM183.261,82.4h-66.52a7.091,7.091,0,0,0-7.091,7.091v41.272a7.089,7.089,0,0,0,7.091,7.091h66.52a7.089,7.089,0,0,0,7.091-7.091V89.486A7.087,7.087,0,0,0,183.261,82.4Zm18.659,1.25h13.4V99.208h-13.4V83.646Zm0,117.147h13.4v15.562h-13.4V200.793Zm0-87.861h13.4v15.562h-13.4V112.932Zm0,58.574h13.4v15.562h-13.4V171.506Zm0-29.287h13.4v15.562h-13.4V142.219Z"/>
</svg>
