<svg xmlns="http://www.w3.org/2000/svg" width="300" height="300" viewBox="0 0 300 300">
  <metadata><?xpacket begin="﻿" id="W5M0MpCehiHzreSzNTczkc9d"?>
<x:xmpmeta xmlns:x="adobe:ns:meta/" x:xmptk="Adobe XMP Core 5.6-c138 79.159824, 2016/09/14-01:09:01        ">
   <rdf:RDF xmlns:rdf="http://www.w3.org/1999/02/22-rdf-syntax-ns#">
      <rdf:Description rdf:about=""/>
   </rdf:RDF>
</x:xmpmeta>
                                                                                                    
                                                                                                    
                                                                                                    
                                                                                                    
                                                                                                    
                                                                                                    
                                                                                                    
                                                                                                    
                                                                                                    
                                                                                                    
                                                                                                    
                                                                                                    
                                                                                                    
                                                                                                    
                                                                                                    
                                                                                                    
                                                                                                    
                                                                                                    
                                                                                                    
                                                                                                    
                           
<?xpacket end="w"?></metadata>
<defs>
    <style>
      .cls-1 {
        fill-rule: evenodd;
      }
    </style>
  </defs>
  <path class="cls-1" d="M192.147,125.911a8.808,8.808,0,1,1-8.808,8.808A8.807,8.807,0,0,1,192.147,125.911Zm14.21-14.2a8.808,8.808,0,1,1-8.808,8.808A8.807,8.807,0,0,1,206.357,111.708Zm-111.747,6.1H81.642v12.32H69.323V143.1H81.642v12.319H94.61V143.1h12.32V130.128H94.61v-12.32ZM150,0A150,150,0,1,0,300,150,150,150,0,0,0,150,0Zm77.068,216.092H213.785l-28.61-45.637H114.824L86.212,216.092H72.933a18.957,18.957,0,0,1-18.957-18.957l4.212-66.349c0-.213.026-0.379,0.031-0.578s-0.031-.418-0.031-0.633A40.567,40.567,0,0,1,98.754,89.009c9.288,0,15.717,3.156,22.554,8.411,8.751-2.539,13.105-4.728,24.974-5.382h7.431c11.868,0.654,16.223,2.843,24.974,5.382,6.839-5.255,13.266-8.411,22.554-8.411a40.568,40.568,0,0,1,40.567,40.566c0,0.215-.029.42-0.031,0.633,0.005,0.2.031,0.366,0.031,0.578l4.212,66.349A18.954,18.954,0,0,1,227.064,216.092Zm-6.5-90.179a8.808,8.808,0,1,1-8.808,8.808A8.808,8.808,0,0,1,220.565,125.913Zm-14.21,14.21a8.808,8.808,0,1,1-8.808,8.808A8.807,8.807,0,0,1,206.355,140.123Z"/>
</svg>
