<svg xmlns="http://www.w3.org/2000/svg" width="612" height="612" viewBox="0 0 612 612">
  <metadata><?xpacket begin="﻿" id="W5M0MpCehiHzreSzNTczkc9d"?>
<x:xmpmeta xmlns:x="adobe:ns:meta/" x:xmptk="Adobe XMP Core 5.6-c138 79.159824, 2016/09/14-01:09:01        ">
   <rdf:RDF xmlns:rdf="http://www.w3.org/1999/02/22-rdf-syntax-ns#">
      <rdf:Description rdf:about=""/>
   </rdf:RDF>
</x:xmpmeta>
                                                                                                    
                                                                                                    
                                                                                                    
                                                                                                    
                                                                                                    
                                                                                                    
                                                                                                    
                                                                                                    
                                                                                                    
                                                                                                    
                                                                                                    
                                                                                                    
                                                                                                    
                                                                                                    
                                                                                                    
                                                                                                    
                                                                                                    
                                                                                                    
                                                                                                    
                                                                                                    
                           
<?xpacket end="w"?></metadata>
<defs>
    <style>
      .cls-1 {
        fill-rule: evenodd;
      }
    </style>
  </defs>
  <path id="Forma_1" data-name="Forma 1" class="cls-1" d="M484.7,247.248q1.223-7.344-3.672-14.076a19.712,19.712,0,0,0-12.853-7.344l-246.636-27.54-3.06-29.988a19.338,19.338,0,0,0-4.284-10.1,15.845,15.845,0,0,0-8.568-5.814l-54.468-17.136a17,17,0,0,0-14.076,1.224,18.928,18.928,0,0,0-9.18,11.016,17,17,0,0,0,1.224,14.076,18.928,18.928,0,0,0,11.016,9.18l42.228,13.464,15.3,150.552-9.792,53.856a19.5,19.5,0,0,0,.306,7.649,14.394,14.394,0,0,0,3.978,7.038,17.388,17.388,0,0,0,14.076,6.732H436.356a18.876,18.876,0,0,0,13.463-5.2,18.469,18.469,0,0,0,0-26.315,18.872,18.872,0,0,0-13.463-5.2H228.276l4.284-24.48h219.1a17.08,17.08,0,0,0,11.628-4.284,18.592,18.592,0,0,0,6.12-11.016ZM402.7,477.972a28.766,28.766,0,1,0,0-57.528q-12.24,0-20.2,8.262t-7.956,20.5q0,12.24,7.956,20.5T402.7,477.972Zm-168.3,0a28.226,28.226,0,1,0-20.5-8.262A27.838,27.838,0,0,0,234.4,477.972ZM306,0q63.036,0,119.034,24.174t97.308,65.484q41.31,41.31,65.484,97.308T612,306a299.219,299.219,0,0,1-11.016,81.4,310.378,310.378,0,0,1-30.906,73.133A306.405,306.405,0,0,1,460.53,570.078,310.3,310.3,0,0,1,387.4,600.984a306.217,306.217,0,0,1-162.791,0,310.332,310.332,0,0,1-73.134-30.906A306.411,306.411,0,0,1,41.922,460.53,310.318,310.318,0,0,1,11.016,387.4a306.222,306.222,0,0,1,0-162.793A310.29,310.29,0,0,1,41.922,151.47,306.416,306.416,0,0,1,151.47,41.922,310.29,310.29,0,0,1,224.6,11.016,299.2,299.2,0,0,1,306,0Z"/>
</svg>
